#!OML:ASF F:\VICON\USERDATA\INSTALL\rory3\rory3.ASF
:FULLY-SPECIFIED
:DEGREES
819
root 5.56063 17.2523 11.3913 -158.865 -42.4888 177.737
lowerback -12.6396 -1.36277 -1.26542
upperback -13.5365 -3.37912 1.60052
thorax -7.19998 -2.23656 2.28615
lowerneck -14.6616 4.49559 4.27539
upperneck 30.8261 3.59566 1.27484
head 12.7751 1.74764 0.183664
rclavicle 3.71727e-014 1.03368e-014
rhumerus -73.5832 63.2145 -92.0845
rradius 110.743
rwrist -50.4783
rhand 26.4675 1.03174
rfingers 7.12502
rthumb 50.505 -19.9218
lclavicle 3.71727e-014 1.03368e-014
lhumerus -53.9439 -76.8109 99.2562
lradius 98.8939
lwrist 42.7321
lhand 31.9684 27.5069
lfingers 7.12502
lthumb 55.4673 45.302
rfemur -35.9454 6.79321 27.799
rtibia 45.7834
rfoot -11.6817 -31.2934
rtoes 0.0313966
lfemur -35.3307 -5.69159 -12.8866
ltibia 41.6925
lfoot -33.8471 29.7757
ltoes 26.5168
820
root 5.5891 17.2525 11.4856 -158.774 -45.5259 177.465
lowerback -12.6159 -1.10771 -1.23371
upperback -13.4766 -2.98068 1.2559
thorax -7.18071 -2.02666 1.9241
lowerneck -14.0597 5.40647 5.52833
upperneck 30.5562 5.01211 0.278682
head 12.6411 2.42138 -0.199841
rclavicle -2.73329e-014 -2.82274e-014
rhumerus -71.2624 61.4752 -88.5675
rradius 110.816
rwrist -50.1026
rhand 29.5659 0.83677
rfingers 7.12502
rthumb 53.3163 -18.4533
lclavicle -2.73329e-014 -2.82274e-014
lhumerus -52.7234 -77.7698 97.6435
lradius 98.728
lwrist 43.1597
lhand 31.6307 27.803
lfingers 7.12502
lthumb 55.1667 45.8204
rfemur -36.1395 5.17585 27.8523
rtibia 45.7704
rfoot -10.6604 -30.6133
rtoes 0.666255
lfemur -35.1783 -5.26504 -13.0115
ltibia 41.749
lfoot -34.2761 29.6841
ltoes 28.8763
821
root 5.62463 17.2881 11.5616 -158.487 -48.2504 177.099
lowerback -12.6553 -0.998483 -1.45462
upperback -13.5099 -2.78444 1.04857
thorax -7.20798 -1.90169 1.83789
lowerneck -13.1022 6.32537 6.89792
upperneck 30.1443 6.47931 -0.89408
head 12.4308 3.10598 -0.671938
rclavicle -5.54609e-014 2.38542e-015
rhumerus -70.7336 61.9528 -87.758
rradius 111.172
rwrist -50.1831
rhand 29.4175 0.814365
rfingers 7.12502
rthumb 53.1825 -18.5618
lclavicle -5.54609e-014 2.38542e-015
lhumerus -52.1456 -78.2045 96.2941
lradius 98.4978
lwrist 43.235
lhand 31.8545 28.0794
lfingers 7.12502
lthumb 55.366 45.95
rfemur -36.1629 7.20034 27.1001
rtibia 45.4799
rfoot -11.4032 -32.4959
rtoes 3.77835
lfemur -35.0444 -4.64667 -13.2478
ltibia 41.7454
lfoot -34.0282 30.693
ltoes 28.5916
822
root 5.6649 17.3022 11.6289 -158.95 -50.9606 177.651
lowerback -12.8638 -0.904481 -1.53702
upperback -13.2768 -2.55139 1.32716
thorax -6.82347 -1.73369 2.1702
lowerneck -12.758 7.11366 7.33412
upperneck 29.7843 7.85259 -1.63567
head 12.3353 3.70619 -0.819194
rclavicle -9.54166e-015 -1.35174e-014
rhumerus -69.3483 62.5056 -85.7376
rradius 111.529
rwrist -49.7438
rhand 29.4858 1.21562
rfingers 7.12502
rthumb 53.2441 -18.1209
lclavicle -9.54166e-015 -1.35174e-014
lhumerus -49.5013 -78.5163 93.3419
lradius 98.1617
lwrist 43.1308
lhand 31.8913 27.7963
lfingers 7.12502
lthumb 55.3988 45.6426
rfemur -36.1035 8.30332 27.2132
rtibia 45.1313
rfoot -11.9028 -33.246
rtoes 5.16147
lfemur -34.9907 -3.62288 -12.8551
ltibia 41.853
lfoot -33.4083 32.0678
ltoes 27.5798
823
root 5.69892 17.3105 11.7021 -160.207 -54.0577 178.675
lowerback -12.8765 -1.07915 -1.55442
upperback -12.7642 -2.61785 2.0525
thorax -6.20254 -1.68467 2.91187
lowerneck -12.7948 8.07875 7.37158
upperneck 29.6171 9.59263 -2.48745
head 12.4186 4.40368 -0.867796
rclavicle 2.3059e-014 7.95139e-016
rhumerus -66.7987 63.5903 -82.4229
rradius 111.649
rwrist -49.1105
rhand 29.0692 2.27569
rfingers 7.12502
rthumb 52.8682 -17.2997
lclavicle 2.3059e-014 7.95139e-016
lhumerus -45.5443 -78.0678 89.3502
lradius 97.84
lwrist 43.2847
lhand 30.6206 27.0197
lfingers 7.12502
lthumb 54.2641 45.6776
rfemur -35.5228 8.51424 27.8927
rtibia 44.7837
rfoot -11.4276 -33.7095
rtoes 7.89902
lfemur -34.5376 -3.03009 -12.0695
ltibia 41.7948
lfoot -33.2636 33.0479
ltoes 26.3366
824
root 5.73531 17.3221 11.8215 -161.245 -56.7281 179.757
lowerback -11.9741 -0.52764 -0.316843
upperback -13.2613 -2.00207 1.60272
thorax -7.32982 -1.48563 1.84364
lowerneck -11.5761 8.85183 8.64402
upperneck 29.8003 10.6314 -2.9545
head 12.4305 4.95879 -1.12986
rclavicle -4.67144e-015 -1.86858e-014
rhumerus -68.8159 63.1211 -83.8762
rradius 111.913
rwrist -48.3411
rhand 27.9083 2.89103
rfingers 7.12502
rthumb 51.817 -17.3227
lclavicle -4.67144e-015 -1.86858e-014
lhumerus -49.1622 -79.1708 91.7701
lradius 97.8582
lwrist 43.5708
lhand 29.4262 26.2519
lfingers 7.12502
lthumb 53.1903 45.623
rfemur -35.5449 9.00911 28.1965
rtibia 44.5846
rfoot -10.7637 -34.1689
rtoes 16.1577
lfemur -34.4434 -3.39765 -11.2516
ltibia 41.7441
lfoot -35.6545 32.883
ltoes 28.5978
